<mxfile host="app.diagrams.net" modified="2020-06-01T10:07:05.948Z" agent="5.0 (Macintosh; Intel Mac OS X 10_15_4) AppleWebKit/537.36 (KHTML, like Gecko) Chrome/83.0.4103.61 Safari/537.36" etag="hLI-cELv-lvcdYXI6Hyc" version="13.1.10" type="github" pages="5">
  <diagram id="1V9zo_mz1J5BLa7o_yEU" name="第 1 页">
    <mxGraphModel dx="1426" dy="695" grid="1" gridSize="10" guides="1" tooltips="1" connect="1" arrows="1" fold="1" page="1" pageScale="1" pageWidth="850" pageHeight="1100" background="#FFFFFF" math="0" shadow="0">
      <root>
        <mxCell id="0" />
        <mxCell id="1" parent="0" />
        <mxCell id="gICRHl6ci0QcWYMXJaiW-1" value="静态资源" style="rounded=0;whiteSpace=wrap;html=1;" vertex="1" parent="1">
          <mxGeometry x="100" y="130" width="120" height="60" as="geometry" />
        </mxCell>
        <mxCell id="gICRHl6ci0QcWYMXJaiW-2" value="动态数据" style="rounded=0;whiteSpace=wrap;html=1;" vertex="1" parent="1">
          <mxGeometry x="100" y="260" width="120" height="150" as="geometry" />
        </mxCell>
        <mxCell id="gICRHl6ci0QcWYMXJaiW-3" value="" style="rounded=0;whiteSpace=wrap;html=1;dashed=1;" vertex="1" parent="1">
          <mxGeometry x="300" y="130" width="480" height="60" as="geometry" />
        </mxCell>
        <mxCell id="gICRHl6ci0QcWYMXJaiW-4" value="图片" style="rounded=0;whiteSpace=wrap;html=1;fillColor=#fff2cc;strokeColor=#d6b656;" vertex="1" parent="1">
          <mxGeometry x="330" y="140" width="90" height="40" as="geometry" />
        </mxCell>
        <mxCell id="gICRHl6ci0QcWYMXJaiW-6" value="样式&lt;span style=&quot;color: rgba(0 , 0 , 0 , 0) ; font-family: monospace ; font-size: 0px&quot;&gt;%3CmxGraphModel%3E%3Croot%3E%3CmxCell%20id%3D%220%22%2F%3E%3CmxCell%20id%3D%221%22%20parent%3D%220%22%2F%3E%3CmxCell%20id%3D%222%22%20value%3D%22%E5%9B%BE%E7%89%87%22%20style%3D%22rounded%3D0%3BwhiteSpace%3Dwrap%3Bhtml%3D1%3B%22%20vertex%3D%221%22%20parent%3D%221%22%3E%3CmxGeometry%20x%3D%22330%22%20y%3D%22140%22%20width%3D%2290%22%20height%3D%2240%22%20as%3D%22geometry%22%2F%3E%3C%2FmxCell%3E%3C%2Froot%3E%3C%2FmxGraphModel%3E&lt;/span&gt;" style="rounded=0;whiteSpace=wrap;html=1;fillColor=#dae8fc;strokeColor=#6c8ebf;" vertex="1" parent="1">
          <mxGeometry x="440" y="140" width="90" height="40" as="geometry" />
        </mxCell>
        <mxCell id="gICRHl6ci0QcWYMXJaiW-7" value="脚本" style="rounded=0;whiteSpace=wrap;html=1;fillColor=#d5e8d4;strokeColor=#82b366;" vertex="1" parent="1">
          <mxGeometry x="550" y="140" width="90" height="40" as="geometry" />
        </mxCell>
        <mxCell id="gICRHl6ci0QcWYMXJaiW-9" value="字体" style="rounded=0;whiteSpace=wrap;html=1;fillColor=#e1d5e7;strokeColor=#9673a6;" vertex="1" parent="1">
          <mxGeometry x="660" y="140" width="90" height="40" as="geometry" />
        </mxCell>
        <mxCell id="gICRHl6ci0QcWYMXJaiW-10" value="" style="rounded=0;whiteSpace=wrap;html=1;dashed=1;" vertex="1" parent="1">
          <mxGeometry x="300" y="260" width="480" height="150" as="geometry" />
        </mxCell>
        <mxCell id="gICRHl6ci0QcWYMXJaiW-11" value="详情页URL" style="rounded=0;whiteSpace=wrap;html=1;fillColor=#fff2cc;strokeColor=#d6b656;labelBackgroundColor=none;" vertex="1" parent="1">
          <mxGeometry x="330" y="320" width="95" height="50" as="geometry" />
        </mxCell>
        <mxCell id="gICRHl6ci0QcWYMXJaiW-14" value="+&amp;nbsp;" style="rounded=0;whiteSpace=wrap;html=1;dashed=1;" vertex="1" parent="1">
          <mxGeometry x="470" y="280" width="280" height="110" as="geometry" />
        </mxCell>
        <mxCell id="gICRHl6ci0QcWYMXJaiW-15" value="列表页URL" style="rounded=0;whiteSpace=wrap;html=1;fillColor=#fff2cc;strokeColor=#d6b656;fontColor=#000000;labelBackgroundColor=none;" vertex="1" parent="1">
          <mxGeometry x="495" y="320" width="95" height="50" as="geometry" />
        </mxCell>
        <mxCell id="gICRHl6ci0QcWYMXJaiW-18" value="&lt;div style=&quot;font-family: &amp;#34;menlo&amp;#34; , &amp;#34;monaco&amp;#34; , &amp;#34;courier new&amp;#34; , monospace ; line-height: 18px&quot;&gt;&lt;font&gt;人群 cookie&lt;/font&gt;&lt;/div&gt;" style="rounded=0;whiteSpace=wrap;html=1;fillColor=#fff2cc;strokeColor=#d6b656;fontColor=#000000;align=center;labelBackgroundColor=none;labelBorderColor=none;" vertex="1" parent="1">
          <mxGeometry x="630" y="320" width="90" height="50" as="geometry" />
        </mxCell>
        <mxCell id="gICRHl6ci0QcWYMXJaiW-19" value="千人千面" style="text;html=1;strokeColor=none;fillColor=none;align=center;verticalAlign=middle;whiteSpace=wrap;rounded=0;dashed=1;labelBackgroundColor=none;fontColor=#000000;" vertex="1" parent="1">
          <mxGeometry x="567.5" y="290" width="85" height="20" as="geometry" />
        </mxCell>
        <mxCell id="gICRHl6ci0QcWYMXJaiW-20" style="edgeStyle=orthogonalEdgeStyle;rounded=0;orthogonalLoop=1;jettySize=auto;html=1;exitX=0.5;exitY=1;exitDx=0;exitDy=0;fontColor=#000000;" edge="1" parent="1" source="gICRHl6ci0QcWYMXJaiW-10" target="gICRHl6ci0QcWYMXJaiW-10">
          <mxGeometry relative="1" as="geometry" />
        </mxCell>
      </root>
    </mxGraphModel>
  </diagram>
  <diagram id="WZayIDBRCtzQCiO-Ivc3" name="第 2 页">
    <mxGraphModel dx="1426" dy="695" grid="1" gridSize="10" guides="1" tooltips="1" connect="1" arrows="1" fold="1" page="1" pageScale="1" pageWidth="1100" pageHeight="850" math="0" shadow="0">
      <root>
        <mxCell id="7pU60MsZN454Mghi9aXd-0" />
        <mxCell id="7pU60MsZN454Mghi9aXd-1" parent="7pU60MsZN454Mghi9aXd-0" />
        <mxCell id="r7Wbn2PcocSIPunirV7j-9" value="" style="rounded=0;whiteSpace=wrap;html=1;dashed=1;" vertex="1" parent="7pU60MsZN454Mghi9aXd-1">
          <mxGeometry x="762.5" y="150" width="120" height="270" as="geometry" />
        </mxCell>
        <mxCell id="7pU60MsZN454Mghi9aXd-3" value="" style="fontColor=#0066CC;verticalAlign=top;verticalLabelPosition=bottom;labelPosition=center;align=center;html=1;outlineConnect=0;fillColor=#CCCCCC;strokeColor=#6881B3;gradientColor=none;gradientDirection=north;strokeWidth=2;shape=mxgraph.networks.users;" vertex="1" parent="7pU60MsZN454Mghi9aXd-1">
          <mxGeometry x="70" y="250" width="90" height="100" as="geometry" />
        </mxCell>
        <mxCell id="7pU60MsZN454Mghi9aXd-4" value="CDN网络" style="html=1;outlineConnect=0;fillColor=#CCCCCC;strokeColor=#6881B3;gradientColor=none;gradientDirection=north;strokeWidth=2;shape=mxgraph.networks.cloud;fontColor=#ffffff;" vertex="1" parent="7pU60MsZN454Mghi9aXd-1">
          <mxGeometry x="430" y="270" width="90" height="50" as="geometry" />
        </mxCell>
        <mxCell id="7pU60MsZN454Mghi9aXd-5" value="Nginx 代理" style="fontColor=#0066CC;verticalAlign=top;verticalLabelPosition=bottom;labelPosition=center;align=center;html=1;outlineConnect=0;fillColor=#CCCCCC;strokeColor=#6881B3;gradientColor=none;gradientDirection=north;strokeWidth=2;shape=mxgraph.networks.proxy_server;" vertex="1" parent="7pU60MsZN454Mghi9aXd-1">
          <mxGeometry x="605" y="242.5" width="105" height="105" as="geometry" />
        </mxCell>
        <mxCell id="7pU60MsZN454Mghi9aXd-10" value="Node 中间层" style="fontColor=#0066CC;verticalAlign=top;verticalLabelPosition=bottom;labelPosition=center;align=center;html=1;outlineConnect=0;fillColor=#CCCCCC;strokeColor=#6881B3;gradientColor=none;gradientDirection=north;strokeWidth=2;shape=mxgraph.networks.server;" vertex="1" parent="7pU60MsZN454Mghi9aXd-1">
          <mxGeometry x="780" y="290" width="90" height="100" as="geometry" />
        </mxCell>
        <mxCell id="7pU60MsZN454Mghi9aXd-11" value="API 服务" style="fontColor=#0066CC;verticalAlign=top;verticalLabelPosition=bottom;labelPosition=center;align=center;html=1;outlineConnect=0;fillColor=#CCCCCC;strokeColor=#6881B3;gradientColor=none;gradientDirection=north;strokeWidth=2;shape=mxgraph.networks.server_storage;" vertex="1" parent="7pU60MsZN454Mghi9aXd-1">
          <mxGeometry x="950" y="245" width="105" height="105" as="geometry" />
        </mxCell>
        <mxCell id="7pU60MsZN454Mghi9aXd-13" value="" style="endArrow=classic;html=1;exitX=0.88;exitY=0.5;exitDx=0;exitDy=0;exitPerimeter=0;" edge="1" parent="7pU60MsZN454Mghi9aXd-1" source="7pU60MsZN454Mghi9aXd-5">
          <mxGeometry width="50" height="50" relative="1" as="geometry">
            <mxPoint x="710" y="285" as="sourcePoint" />
            <mxPoint x="760" y="295" as="targetPoint" />
          </mxGeometry>
        </mxCell>
        <mxCell id="7pU60MsZN454Mghi9aXd-16" value="" style="endArrow=classic;html=1;" edge="1" parent="7pU60MsZN454Mghi9aXd-1">
          <mxGeometry width="50" height="50" relative="1" as="geometry">
            <mxPoint x="520" y="295" as="sourcePoint" />
            <mxPoint x="600" y="295" as="targetPoint" />
          </mxGeometry>
        </mxCell>
        <mxCell id="7pU60MsZN454Mghi9aXd-17" value="" style="endArrow=classic;html=1;" edge="1" parent="7pU60MsZN454Mghi9aXd-1">
          <mxGeometry width="50" height="50" relative="1" as="geometry">
            <mxPoint x="890" y="300" as="sourcePoint" />
            <mxPoint x="940" y="299.5" as="targetPoint" />
            <Array as="points">
              <mxPoint x="929" y="299.5" />
            </Array>
          </mxGeometry>
        </mxCell>
        <mxCell id="r7Wbn2PcocSIPunirV7j-1" value="" style="shape=image;verticalLabelPosition=bottom;labelBackgroundColor=#ffffff;verticalAlign=top;aspect=fixed;imageAspect=0;image=data:image/png,iVBORw0KGgoAAAANSUhEUgAAAOoAAAAuCAYAAAAm7YXsAAANeUlEQVR4Ae2cea8VRROH+ZyEREMkYEADCCKiiLJJcEEWRWURENk3FRBcQEWUVZBF4GvwAebNM3mfSd2+PXMW7r05R/qPk57prq6urq5fLT0XZj19+rQqv6KDYgOjbQOzygGN9gGV8ynngw3MevLkSVV+RQfFBkbbBgpQi6MqjnoMbKAAdQwOqUS70Y52M3E+BagFqCWijoENFKCOwSHNhMcua4x21C5ALUAtEXUMbGBagfrqq69WuV/x3qPtvcv5jN75FKCOgTctwBk94Mz0mRSgFqCW1HcMbKAAdQwOaaa9d1lv9CL4MwH122+/re7du5f1yIzl6lP6GMsZA7zaxnL0XX2XLl2qPvzww+rNN9+sFi5cWC1fvrzasGFDdeTIkerRo0fZ9bv4zdTY4cOHq3379lV//fXXSMj4yy+/1PIg07///puV6eHDhw3NyZMnszTo7/r16w3ddO3v+++/r9e4cOFCqxwzdZZTuc7QQAUIgG7VqlUTwIWC6GsDqf3QRGUCUMDEOLyH3eTdu3drPrNnz67afi+99FL1008/Db3GsLL1M0+ZT5w4MRLy7dmzp9Fjm87Onj3b0MyZM6cV0F9++WVD98cff0zL/pYtW1avsWnTpmnh388ZTgfN0EB97733JoARxXz22WcT+gRlV8sc5kYaeA+zWTz7kiVLGmN4+eWXq+3bt1dfffVVtW3btop3gfDCCy9UN2/eHGqdYWTrd47yjQpQf/vtt0Znu3btyupry5YtDQ3yX7x4MUu3cuXKmu7FF1/Mjveroy66AtRQyx09enQCsCLIpuqZNboOJDdG2qWhf/TRR9n50auvX78+S5PjPVN97Jv0fFScyOPHjyucGnqljMjpITpA6Hbs2DGJDj5EW8bXrVs3aTzHd5i+AtT/A5U60hR1qkCZ48MabfVv2wFSkwrU+/fvtxrD0qVLa7r58+e30rSt8Tz2v/3227W+ABqAizq4fft2o3NBsnjx4gk00P/6668N3TBOOK7Z9awMz33qe+bMmb6jKcqi3gRw/HhO09wcSO1jra5DSceoe/sB6tdff13NnTu3/j148GDSGqdOnareeeedilqWaAJfajXq37jmrVu36jHGuaD6/fffK9JALq+YTz+/H374YcI8eVCnSUOKSb/zfvzxx0lz4MOFmBEM+d54443qu+++m0TrGgDEOQANJ0XEG6RG3L9/f6PXK1euTFgL0KFz9Hn69OmGLnWye/fubcYAt/Lx/Mknn1QADF2TFhO5yXwoZaSzJQtCZ+j677//rj7//PN67rx582raLqCeO3eu0XcKZM5v9+7dtT6Rg/0Q+bncS50TNTkyIDdycYGFjplz6NChug/boNxasGBBnUmgewID66Y6dG9d7VA1KoBLa1TBZQsY2hZmTLpcC+9hLpR27tzZGAMH2hVVc7JhGMwT7GkLQO7cudPsC2OR5urVq02KSB97MNUDfLn1AAy00GmU8os1KoZCLe9YrsVQ0jWozXO09LHm5cuXJ81JefAOqOVz4MCBCXMwZsZYH3BKl97ev/XWW/UYhusaAMe02nmxRd/oVXpadQp/Irf0gITxNqBCLy0OLt46cxuNHTqetuwxglW9MifyZd4333xT88bhpHx8Zw+D2vdQQFVxRLxcGpx6K+ljm4us8Bo0ikaeeCoPEqVgBBgQRt9PzYcHVJnvv/9+fSvNTWfsX7RoUWM4Eah4S+ZiBGvWrKmol+Ehv1zkxmgZjyCTPgLVqMUY62AMfjZBHufozdEJILD/tddeqw2K6ArQBAe6unHjRrOfqMv02TnpRZ8GqbyC54MPPmj4YuTO9+6A81A+2k8//bS+iT9//nwdyRxjv/FzmueLnqHhnehGZEXmHFCRTX6AP0Z05igzNERyQIQcOFjnffzxx81+BCp7Uh7OgXM0g3EeURq7xFZ4tp9Lz1THXe/PBFQY5yJrP94CmjSapkbQJXjbGJ98NAqVYovXBTwcQjofDyvdF198MWk8pnWmshGozMUI47dGQC7P9PtijFLxllR6DR8j1Sgx2jT9Jv3TWF5//fVabuaQCsJrxYoVE6IB+yaCOCd38ZPqhnecD/yMXPTFPSgXgIMOWeWDobov0kT6165d2/TFz3TOiZd+MYorN/wAZQq6FKikrq4NOP75559GLtbi4s7xXLnhvQfrmqEJVOfBQ7lp2TtjlCWxn+dYAuScd0rv+zMDNQUb72l94mKxhSY3N9IM+wxYiC7UOvFgVSztK6+8MiGt0tsB8ujBowx63nfffbc+gAhU6tJI67OAWb169YRx03QMP6ZVyihQI9gxOvnGlpp68+bNdX1MPymtfKx9Iz3PZgn9fio5ePBgw9PsRINFl/KP8lKn0R9rXIyd/SofDsC5sY3OhrrasXieKUihiUCN6/JpyPJCXrR+MiI1j/0+I6+yogP63Tf9ZgjS03r5xjhnFu0JfpwPv+jU4/zc838SqHGjKIl0hEPzUFQ8INGYYm2KonM/0zzSJ9aIQG2ryQUka+qRmQsP+vjOG+VVNoEaPb5RK9LnnuMcDDC3F9dnvTTK5HjGjOP48eO1zOoz7gF9CyYjjSmkgCOiu09pcmtSHkEXnYm82wAuUKVzna1bt07Qs+uZrbBGTk/0yYPoyrwI1D///HMSX8o359AiC+fAd2hsMTpm5ejVPjNQpzL17ae27bWhXuMAk1pYRZrm+snG/q5Ww4lANR1O149GqYFHo08vS1xXoJpK0p/ybnv3kkpevdpUhja+ODZ4Eb0jINOU0Ysj0lt46eBwWrxDr0y5tNf1MWzpjIYCsC1lF6jOk573tCSLkV36rlbnEIEao6Vy02IP3kGkPOnnDiHS93p+JqBy4zXVl0nw7CV0btxbV1LXXkoggqg8P+Lr9TEqom/Xz++AEahdnzs0HtMr66+YMron5RKopuT095sqxZSvax+MUf/FSK8cudYbXqKxYAMIqbG6Prok4rinn3/+uT7bqLeuy0M+fzCXNZRH4LGGfbFV18wD6LE+BiCpDr3P4MKtl650KgKVuXHt3PO1a9dqHRPQXEt9pI4jN9++oYDKArlIGmvOtlSQhafj8wweVwXEVMyNpq3RgQNizChEKpTS+o7SMTZa+qLB5VIg58ULDUDhTW3O2NyDQI3X/20Hi+EAHvgSJTAo+ZjaK4stn5nYS1sNK11s4z68ZNH5RLqYMXBbiiwR0PGs2iIj/Mx82Jf8BWqbfQlUoznzuBFWH2kKbCYVb95dyxYdoSs/zQlUMyvpbKEnxU0vi9h3LIX8Duu8rnZgoOIBIyC7nkllMS4ujvjxTF/XnDjW5W1zm+JCR6PoinDRy/J9El7cBHuYuaiO/HrEjRs3DgRUwKmBGU1Zy4OPe1EGgRpT52h8zsEYlAvDpp+MwfVylx3QcBvMWv6hgPy6Wj7lKJ9tztnAw9pPuhTQZBOMIWdOD9yEO9faEL7uqxdQYxlFxNc24BkdHk7ddXKXU/FyzEyqC6jYifxyl384UvdAhtKl7zg2MFARJJfuRoBNxTNrsFYUttczxq2STGGjVyPt4TOLhg1t/Oivd0WR1JOmdERLP08wxxSo34iK3KaNypcarntzXKDSj7e3Hy9sqorBkdk4xvdV+ZghMMYNr3P4nBNrP2pg5/TTeovtmkTP3Lz4DRnaFNAx6pOSGtkxZBy0Z8RZILNraOSDAJW5RDhl5vOJNS8XdPKkXxAjB1HUSzdo1GEXUFlLp4ANxvodnjEr8RbZvXW1AwMVZniWqQBjF49Bo6mbjAbqwZDmpgbG2LFjxxoDYD7GooE4F2X7TMtFimsNAlQuFyIfPqnIJ7bSRKCSvqYRKpWTG9jIB6Myaskz3QsppcYX53Y9RwB2lQnxH0iwfq40SP/VDXsSNMpsFFMmxwcFKvNj9IxpZ7wlZ13WcB3liOfRC6h8K3YeLfvCGUWe2GMuk3CfaTsUUGFCRIhAI9XAO8e+fp6Zk6bDRIlU0EHe8dbWKlFhPiN7/CODyBvvzZV8VKrK5u998YrSR6CSotqfa5lnXQzv9FLDOcqYAhlAkXKncvFO+m6EkA8tGQEGmYKaNfjLoUEMRb5kGsoY00vHbYlU0rFv+9MWh+wfCEhPyx8noN+U3v3Hv8KKNJ57/Msox9F5XIsSyDEyq9SxIQcRNS2FegEVnoAV+4978pkSJpdmK0uuHRqopAgIgtHH6AdIUhDnAAuNKSSCwcOU2vQjJ/AgfRgif2qHcfGj3ohpVBcvgEVaB6ABYQRo17yZGEMedMelVr9yYRjshdo9B+qZkLtrDRwRZwU4LTm66KdrDDCTJmMrg4IpJxP2hhPgvNB9LMVy9G19QwMVhoCrrY5kLAdQ+iJAo2DwiqCPY+V59P4fn3ImM3cmzwTUXgfVBtRe88r4zBlA0fV46LoANfzPFcVox8Non8dzKkAtQG0uVJ5HAIzLngtQC1ALUMfABqYVqOPirYqcJeUddRsoQB0DbzrqRlTkm35HV4BagFpS3zGwgQLUMTikErGmP2KNuo4LUAtQS0QdAxsoQB2DQxp1b1/km/6IP+vp06dV+RUdFBsYbRsoQC2OqjjqMbCBAtQxOKQS7UY72s3E+RSgFqCWiDoGNvA/Iw+8NOqvz+wAAAAASUVORK5CYII=;" vertex="1" parent="7pU60MsZN454Mghi9aXd-1">
          <mxGeometry x="210" y="282.5" width="178.04" height="35" as="geometry" />
        </mxCell>
        <mxCell id="r7Wbn2PcocSIPunirV7j-5" value="" style="endArrow=classic;html=1;entryX=0;entryY=0.5;entryDx=0;entryDy=0;" edge="1" parent="7pU60MsZN454Mghi9aXd-1" target="r7Wbn2PcocSIPunirV7j-1">
          <mxGeometry width="50" height="50" relative="1" as="geometry">
            <mxPoint x="160" y="300" as="sourcePoint" />
            <mxPoint x="210" y="250" as="targetPoint" />
          </mxGeometry>
        </mxCell>
        <mxCell id="r7Wbn2PcocSIPunirV7j-7" value="" style="endArrow=classic;html=1;" edge="1" parent="7pU60MsZN454Mghi9aXd-1">
          <mxGeometry width="50" height="50" relative="1" as="geometry">
            <mxPoint x="388.04" y="300" as="sourcePoint" />
            <mxPoint x="420" y="300" as="targetPoint" />
          </mxGeometry>
        </mxCell>
        <mxCell id="r7Wbn2PcocSIPunirV7j-8" value="Redis" style="fontColor=#0066CC;verticalAlign=top;verticalLabelPosition=bottom;labelPosition=center;align=center;html=1;outlineConnect=0;fillColor=#CCCCCC;strokeColor=#6881B3;gradientColor=none;gradientDirection=north;strokeWidth=2;shape=mxgraph.networks.storage;dashed=1;" vertex="1" parent="7pU60MsZN454Mghi9aXd-1">
          <mxGeometry x="780" y="185" width="85" height="60" as="geometry" />
        </mxCell>
      </root>
    </mxGraphModel>
  </diagram>
  <diagram id="7wEjWhEs7Law12-Sd6TR" name="第 3 页">
    <mxGraphModel dx="1426" dy="695" grid="1" gridSize="10" guides="1" tooltips="1" connect="1" arrows="1" fold="1" page="1" pageScale="1" pageWidth="1100" pageHeight="850" math="0" shadow="0">
      <root>
        <mxCell id="vc_cieNqi_4L2xbfMsvh-0" />
        <mxCell id="vc_cieNqi_4L2xbfMsvh-1" parent="vc_cieNqi_4L2xbfMsvh-0" />
        <mxCell id="vc_cieNqi_4L2xbfMsvh-3" value="" style="rounded=0;whiteSpace=wrap;html=1;dashed=1;" vertex="1" parent="vc_cieNqi_4L2xbfMsvh-1">
          <mxGeometry x="310" y="240" width="120" height="280" as="geometry" />
        </mxCell>
        <mxCell id="vc_cieNqi_4L2xbfMsvh-6" value="购物车接口" style="rounded=0;whiteSpace=wrap;html=1;fillColor=#d5e8d4;strokeColor=#82b366;" vertex="1" parent="vc_cieNqi_4L2xbfMsvh-1">
          <mxGeometry x="320" y="310" width="100" height="50" as="geometry" />
        </mxCell>
        <mxCell id="vc_cieNqi_4L2xbfMsvh-7" value="" style="rounded=0;whiteSpace=wrap;html=1;dashed=1;" vertex="1" parent="vc_cieNqi_4L2xbfMsvh-1">
          <mxGeometry x="505" y="240" width="120" height="280" as="geometry" />
        </mxCell>
        <mxCell id="vc_cieNqi_4L2xbfMsvh-9" value="首页接口" style="rounded=0;whiteSpace=wrap;html=1;fillColor=#d5e8d4;strokeColor=#82b366;" vertex="1" parent="vc_cieNqi_4L2xbfMsvh-1">
          <mxGeometry x="515" y="280" width="100" height="50" as="geometry" />
        </mxCell>
        <mxCell id="vc_cieNqi_4L2xbfMsvh-10" value="推荐接口" style="rounded=0;whiteSpace=wrap;html=1;fillColor=#d5e8d4;strokeColor=#82b366;" vertex="1" parent="vc_cieNqi_4L2xbfMsvh-1">
          <mxGeometry x="515" y="340" width="100" height="50" as="geometry" />
        </mxCell>
        <mxCell id="vc_cieNqi_4L2xbfMsvh-11" value="详情接口" style="rounded=0;whiteSpace=wrap;html=1;fillColor=#d5e8d4;strokeColor=#82b366;" vertex="1" parent="vc_cieNqi_4L2xbfMsvh-1">
          <mxGeometry x="515" y="400" width="100" height="50" as="geometry" />
        </mxCell>
        <mxCell id="vc_cieNqi_4L2xbfMsvh-12" value="CCC接口" style="rounded=0;whiteSpace=wrap;html=1;fillColor=#d5e8d4;strokeColor=#82b366;" vertex="1" parent="vc_cieNqi_4L2xbfMsvh-1">
          <mxGeometry x="515" y="460" width="100" height="50" as="geometry" />
        </mxCell>
        <mxCell id="vc_cieNqi_4L2xbfMsvh-13" value="NetworkFirst" style="text;html=1;strokeColor=none;fillColor=none;align=center;verticalAlign=middle;whiteSpace=wrap;rounded=0;dashed=1;" vertex="1" parent="vc_cieNqi_4L2xbfMsvh-1">
          <mxGeometry x="350" y="240" width="40" height="20" as="geometry" />
        </mxCell>
        <mxCell id="vc_cieNqi_4L2xbfMsvh-15" value="CacheFirst" style="text;html=1;strokeColor=none;fillColor=none;align=center;verticalAlign=middle;whiteSpace=wrap;rounded=0;dashed=1;" vertex="1" parent="vc_cieNqi_4L2xbfMsvh-1">
          <mxGeometry x="545" y="240" width="40" height="20" as="geometry" />
        </mxCell>
      </root>
    </mxGraphModel>
  </diagram>
  <diagram id="dWY7OO4TyxDle8ARtW6u" name="第 4 页">
    <mxGraphModel dx="1426" dy="695" grid="1" gridSize="10" guides="1" tooltips="1" connect="1" arrows="1" fold="1" page="1" pageScale="1" pageWidth="1100" pageHeight="850" math="0" shadow="0">
      <root>
        <mxCell id="ELmKAYmuVZfvkQXjsNKd-0" />
        <mxCell id="ELmKAYmuVZfvkQXjsNKd-1" parent="ELmKAYmuVZfvkQXjsNKd-0" />
        <mxCell id="ELmKAYmuVZfvkQXjsNKd-3" value="" style="rounded=0;whiteSpace=wrap;html=1;" vertex="1" parent="ELmKAYmuVZfvkQXjsNKd-1">
          <mxGeometry x="390" y="160" width="330" height="340" as="geometry" />
        </mxCell>
        <mxCell id="ELmKAYmuVZfvkQXjsNKd-23" value="" style="rounded=0;whiteSpace=wrap;html=1;shadow=0;dashed=1;" vertex="1" parent="ELmKAYmuVZfvkQXjsNKd-1">
          <mxGeometry x="410" y="180" width="290" height="300" as="geometry" />
        </mxCell>
        <mxCell id="ELmKAYmuVZfvkQXjsNKd-14" value="" style="rounded=0;whiteSpace=wrap;html=1;" vertex="1" parent="ELmKAYmuVZfvkQXjsNKd-1">
          <mxGeometry x="780" y="160" width="200" height="340" as="geometry" />
        </mxCell>
        <mxCell id="ELmKAYmuVZfvkQXjsNKd-18" value="" style="rounded=0;whiteSpace=wrap;html=1;shadow=0;dashed=1;" vertex="1" parent="ELmKAYmuVZfvkQXjsNKd-1">
          <mxGeometry x="805" y="270" width="150" height="195" as="geometry" />
        </mxCell>
        <mxCell id="ELmKAYmuVZfvkQXjsNKd-8" value="首屏CSS.html" style="rounded=0;whiteSpace=wrap;html=1;fillColor=#e1d5e7;strokeColor=#9673a6;" vertex="1" parent="ELmKAYmuVZfvkQXjsNKd-1">
          <mxGeometry x="425" y="300" width="120" height="60" as="geometry" />
        </mxCell>
        <mxCell id="ELmKAYmuVZfvkQXjsNKd-9" value="Api Data" style="rounded=0;whiteSpace=wrap;html=1;fillColor=#e1d5e7;strokeColor=#9673a6;" vertex="1" parent="ELmKAYmuVZfvkQXjsNKd-1">
          <mxGeometry x="565" y="300" width="120" height="60" as="geometry" />
        </mxCell>
        <mxCell id="ELmKAYmuVZfvkQXjsNKd-10" value="骨架图.html" style="rounded=0;whiteSpace=wrap;html=1;fillColor=#e1d5e7;strokeColor=#9673a6;" vertex="1" parent="ELmKAYmuVZfvkQXjsNKd-1">
          <mxGeometry x="425" y="380" width="120" height="60" as="geometry" />
        </mxCell>
        <mxCell id="ELmKAYmuVZfvkQXjsNKd-11" value="Response HTML" style="text;html=1;strokeColor=none;fillColor=none;align=center;verticalAlign=middle;whiteSpace=wrap;rounded=0;" vertex="1" parent="ELmKAYmuVZfvkQXjsNKd-1">
          <mxGeometry x="470" y="120" width="160" height="20" as="geometry" />
        </mxCell>
        <mxCell id="ELmKAYmuVZfvkQXjsNKd-12" value="App.html" style="rounded=0;whiteSpace=wrap;html=1;fillColor=#e1d5e7;strokeColor=#9673a6;" vertex="1" parent="ELmKAYmuVZfvkQXjsNKd-1">
          <mxGeometry x="495" y="230" width="120" height="60" as="geometry" />
        </mxCell>
        <mxCell id="ELmKAYmuVZfvkQXjsNKd-13" style="edgeStyle=orthogonalEdgeStyle;rounded=0;orthogonalLoop=1;jettySize=auto;html=1;exitX=0.5;exitY=1;exitDx=0;exitDy=0;" edge="1" parent="ELmKAYmuVZfvkQXjsNKd-1" source="ELmKAYmuVZfvkQXjsNKd-3" target="ELmKAYmuVZfvkQXjsNKd-3">
          <mxGeometry relative="1" as="geometry" />
        </mxCell>
        <mxCell id="ELmKAYmuVZfvkQXjsNKd-16" value="Vue组件" style="rounded=0;whiteSpace=wrap;html=1;" vertex="1" parent="ELmKAYmuVZfvkQXjsNKd-1">
          <mxGeometry x="820" y="310" width="120" height="60" as="geometry" />
        </mxCell>
        <mxCell id="ELmKAYmuVZfvkQXjsNKd-17" value="CSS" style="rounded=0;whiteSpace=wrap;html=1;" vertex="1" parent="ELmKAYmuVZfvkQXjsNKd-1">
          <mxGeometry x="820" y="380" width="120" height="60" as="geometry" />
        </mxCell>
        <mxCell id="ELmKAYmuVZfvkQXjsNKd-20" value="" style="endArrow=classic;html=1;exitX=1;exitY=0.5;exitDx=0;exitDy=0;entryX=0;entryY=0.5;entryDx=0;entryDy=0;" edge="1" parent="ELmKAYmuVZfvkQXjsNKd-1" source="ELmKAYmuVZfvkQXjsNKd-3" target="ELmKAYmuVZfvkQXjsNKd-14">
          <mxGeometry width="50" height="50" relative="1" as="geometry">
            <mxPoint x="680" y="330" as="sourcePoint" />
            <mxPoint x="730" y="280" as="targetPoint" />
          </mxGeometry>
        </mxCell>
        <mxCell id="ELmKAYmuVZfvkQXjsNKd-21" value="页面模块/公共模块" style="text;html=1;strokeColor=none;fillColor=none;align=center;verticalAlign=middle;whiteSpace=wrap;rounded=0;shadow=0;dashed=1;" vertex="1" parent="ELmKAYmuVZfvkQXjsNKd-1">
          <mxGeometry x="820" y="280" width="120" height="20" as="geometry" />
        </mxCell>
        <mxCell id="ELmKAYmuVZfvkQXjsNKd-22" value="多语言.html" style="rounded=0;whiteSpace=wrap;html=1;fillColor=#e1d5e7;strokeColor=#9673a6;" vertex="1" parent="ELmKAYmuVZfvkQXjsNKd-1">
          <mxGeometry x="565" y="380" width="120" height="60" as="geometry" />
        </mxCell>
        <mxCell id="ELmKAYmuVZfvkQXjsNKd-24" value="首屏" style="text;html=1;strokeColor=none;fillColor=none;align=center;verticalAlign=middle;whiteSpace=wrap;rounded=0;shadow=0;dashed=1;" vertex="1" parent="ELmKAYmuVZfvkQXjsNKd-1">
          <mxGeometry x="512.5" y="190" width="85" height="20" as="geometry" />
        </mxCell>
        <mxCell id="X0ttCPqJAtsamJKyRjrU-0" value="异步加载" style="text;html=1;strokeColor=none;fillColor=none;align=center;verticalAlign=middle;whiteSpace=wrap;rounded=0;" vertex="1" parent="ELmKAYmuVZfvkQXjsNKd-1">
          <mxGeometry x="795" y="120" width="160" height="20" as="geometry" />
        </mxCell>
        <mxCell id="X0ttCPqJAtsamJKyRjrU-2" value="&lt;span&gt;preload 路由组件&lt;/span&gt;" style="rounded=0;whiteSpace=wrap;html=1;shadow=0;" vertex="1" parent="ELmKAYmuVZfvkQXjsNKd-1">
          <mxGeometry x="805" y="180" width="155" height="60" as="geometry" />
        </mxCell>
      </root>
    </mxGraphModel>
  </diagram>
  <diagram id="ZckoSdsGdRRTlGAorSyG" name="第 5 页">
    <mxGraphModel dx="1186" dy="665" grid="1" gridSize="10" guides="1" tooltips="1" connect="1" arrows="1" fold="1" page="1" pageScale="1" pageWidth="1100" pageHeight="850" math="0" shadow="0">
      <root>
        <mxCell id="f8oDHMaoBUb47bd6FuTN-0" />
        <mxCell id="f8oDHMaoBUb47bd6FuTN-1" parent="f8oDHMaoBUb47bd6FuTN-0" />
        <mxCell id="f8oDHMaoBUb47bd6FuTN-2" value="" style="rounded=0;whiteSpace=wrap;html=1;shadow=0;dashed=1;" vertex="1" parent="f8oDHMaoBUb47bd6FuTN-1">
          <mxGeometry x="220" y="260" width="120" height="60" as="geometry" />
        </mxCell>
      </root>
    </mxGraphModel>
  </diagram>
</mxfile>
